HIERARCHY
ROOT Hips
{
    OFFSET 0.000000 0.000000 0.000000
    CHANNELS 6 Xposition Yposition Zposition Zrotation Xrotation Yrotation
    JOINT Spine
    {
        OFFSET -0.000000 14.517291 0.000000
        CHANNELS 3 Zrotation Xrotation Yrotation
        JOINT Spine1
        {
            OFFSET -0.000000 37.558300 0.000000
            CHANNELS 3 Zrotation Xrotation Yrotation
            JOINT Neck
            {
                OFFSET -0.000000 37.404057 3.400369
                CHANNELS 3 Zrotation Xrotation Yrotation
                JOINT Head
                {
                    OFFSET -0.000000 24.785618 -3.540803
                    CHANNELS 3 Zrotation Xrotation Yrotation
                    End Site
                    {
                        OFFSET -0.000000 35.408028 0.000000
                    }
                }
            }
            JOINT LeftShoulder
            {
                OFFSET 6.992933 33.973492 -0.192664
                CHANNELS 3 Zrotation Xrotation Yrotation
                JOINT LeftArm
                {
                    OFFSET 21.527611 0.000000 0.000000
                    CHANNELS 3 Zrotation Xrotation Yrotation
                    JOINT LeftForeArm
                    {
                        OFFSET 56.353916 0.000000 0.000000
                        CHANNELS 3 Zrotation Xrotation Yrotation
                        JOINT LeftHand
                        {
                            OFFSET 47.774071 0.000000 0.000000
                            CHANNELS 3 Zrotation Xrotation Yrotation
                            End Site
                            {
                                OFFSET 26.556021 0.000000 0.000000
                            }
                        }
                    }
                }
            }
            JOINT RightShoulder
            {
                OFFSET -7.065357 33.973492 -0.192664
                CHANNELS 3 Zrotation Xrotation Yrotation
                JOINT RightArm
                {
                    OFFSET -21.527611 0.000000 0.000000
                    CHANNELS 3 Zrotation Xrotation Yrotation
                    JOINT RightForeArm
                    {
                        OFFSET -56.353916 0.000000 0.000000
                        CHANNELS 3 Zrotation Xrotation Yrotation
                        JOINT RightHand
                        {
                            OFFSET -47.774071 0.000000 0.000000
                            CHANNELS 3 Zrotation Xrotation Yrotation
                            End Site
                            {
                                OFFSET -26.556021 0.000000 0.000000
                            }
                        }
                    }
                }
            }
        }
    }
    JOINT LeftUpLeg
    {
        OFFSET 17.704014 0.000000 0.000000
        CHANNELS 3 Zrotation Xrotation Yrotation
        JOINT LeftLeg
        {
            OFFSET -0.000000 -81.181816 0.000000
            CHANNELS 3 Zrotation Xrotation Yrotation
            JOINT LeftFoot
            {
                OFFSET -0.000000 -62.821102 0.000000
                CHANNELS 3 Zrotation Xrotation Yrotation
                JOINT LeftToeBase
                {
                    OFFSET -0.000000 -11.507608 26.556021
                    CHANNELS 3 Zrotation Xrotation Yrotation
                    End Site
                    {
                        OFFSET -0.000000 0.000000 7.081605
                    }
                }
            }
        }
    }
    JOINT RightUpLeg
    {
        OFFSET -17.704014 0.000000 0.000000
        CHANNELS 3 Zrotation Xrotation Yrotation
        JOINT RightLeg
        {
            OFFSET -0.000000 -81.181816 0.000000
            CHANNELS 3 Zrotation Xrotation Yrotation
            JOINT RightFoot
            {
                OFFSET -0.000000 -62.821102 0.000000
                CHANNELS 3 Zrotation Xrotation Yrotation
                JOINT RightToeBase
                {
                    OFFSET -0.000000 -11.507608 26.556021
                    CHANNELS 3 Zrotation Xrotation Yrotation
                    End Site
                    {
                        OFFSET -0.000000 0.000000 7.081605
                    }
                }
            }
        }
    }
}
MOTION
Frames:    12
Frame Time:    0.008333
-9.222933    157.638580    -93.751465    -2.143062    -5.457237    46.005711    -0.857113    -3.557694    -1.217753    -3.516680    4.624236    -0.256499    -0.368749    -2.166087    -18.173307    13.826310    1.367513    -17.122833    5.754962    5.633270    -19.464804    -32.834053    19.442871    -49.520634    -4.399914    -19.952385    -114.059792    1.357684    -26.233561    -3.258781    -8.342968    1.595678    -3.538226    25.831150    8.372746    57.503273    -2.448586    -38.264637    2.169536    22.070036    -35.731758    15.920325    21.688866    1.640371    -2.824221    -10.195885    24.008568    -19.115238    -2.588754    -24.432041    42.040070    0.000000    0.000000    0.000000    -11.423154    -13.467975    -19.872177    4.463839    13.825003    -18.923311    6.174160    10.669980    -9.491633    0.000000    0.000000    0.000000    
-9.217486    157.647797    -93.747177    -2.145477    -5.462550    45.969719    -0.845999    -3.562446    -1.209679    -3.539187    4.604069    -0.253678    -0.379950    -2.168964    -18.165218    13.841717    1.407524    -17.115305    5.747132    5.629374    -19.474510    -32.824478    19.405724    -49.516582    -4.416442    -19.921778    -114.053772    1.338396    -26.226397    -3.298865    -8.477830    1.444752    -3.532655    25.690813    7.824719    57.503456    -2.521354    -38.216671    2.217149    22.263220    -35.630997    16.081995    21.691082    1.680263    -2.811886    -10.192090    23.970051    -19.146898    -2.578548    -24.422312    42.077095    0.000000    0.000000    0.000000    -11.399425    -13.456125    -19.851185    4.454381    13.781859    -18.914068    6.171474    10.704865    -9.494503    0.000000    0.000000    0.000000    
-9.211457    157.657196    -93.746689    -2.145881    -5.459594    45.946949    -0.835813    -3.569798    -1.198658    -3.582238    4.581089    -0.249077    -0.360012    -2.146124    -18.174763    13.853110    1.416409    -17.128443    5.762779    5.638421    -19.497290    -32.800274    19.395985    -49.548378    -4.388996    -19.953365    -114.023560    1.352877    -26.215359    -3.313455    -8.583241    1.308170    -3.527778    25.478367    7.283033    57.493401    -2.614035    -38.164528    2.290850    22.262020    -35.550976    16.225332    21.677532    1.702971    -2.803073    -10.178552    23.942991    -19.128151    -2.585116    -24.403168    42.071739    0.000000    0.000000    0.000000    -11.387046    -13.449653    -19.850443    4.434326    13.751322    -18.888037    6.191578    10.722708    -9.497005    0.000000    0.000000    0.000000    
-9.203648    157.665634    -93.744049    -2.143927    -5.464411    45.931423    -0.825725    -3.573207    -1.199623    -3.610448    4.565588    -0.248836    -0.371686    -2.159122    -18.179819    13.873195    1.466429    -17.135252    5.760823    5.642858    -19.518272    -32.803608    19.366734    -49.552231    -4.395025    -19.936087    -114.017204    1.352683    -26.206724    -3.337490    -8.707783    1.183157    -3.527729    25.271835    6.694207    57.510025    -2.683298    -38.120304    2.367882    22.269047    -35.485218    16.326509    21.675053    1.734748    -2.814795    -10.181155    23.900738    -19.106104    -2.601448    -24.408710    42.073490    0.000000    0.000000    0.000000    -11.375049    -13.430564    -19.838610    4.434846    13.709799    -18.894327    6.167255    10.749215    -9.490273    0.000000    0.000000    0.000000    
-9.198254    157.672806    -93.741974    -2.144958    -5.469559    45.921268    -0.822540    -3.571779    -1.194677    -3.630180    4.534432    -0.247437    -0.383704    -2.118661    -18.206390    13.920038    1.473539    -17.156269    5.761604    5.667194    -19.552126    -32.785278    19.362761    -49.580959    -4.376476    -19.964329    -113.997635    1.350062    -26.205765    -3.359662    -8.826809    1.043302    -3.507767    25.054335    6.098362    57.473774    -2.777599    -37.978745    2.418712    22.370609    -35.298805    16.477869    21.669554    1.760563    -2.807033    -10.163002    23.869085    -19.113888    -2.597441    -24.402660    42.083141    0.000000    0.000000    0.000000    -11.360995    -13.424600    -19.824045    4.427640    13.719151    -18.887873    6.172669    10.716099    -9.494137    0.000000    0.000000    0.000000    
-9.194333    157.680252    -93.741386    -2.144385    -5.470852    45.915958    -0.829530    -3.565105    -1.193886    -3.641616    4.504814    -0.247617    -0.337631    -2.156381    -18.209593    13.851363    1.527606    -17.182388    5.765318    5.683132    -19.578625    -32.777306    19.372290    -49.571724    -4.364796    -19.976812    -114.006256    1.330692    -26.202414    -3.402948    -8.969557    0.864437    -3.513630    24.874519    5.497578    57.447426    -2.851871    -37.822208    2.510436    22.353094    -35.102234    16.680609    21.664036    1.776858    -2.809904    -10.154338    23.846107    -19.099426    -2.613497    -24.388729    42.071743    0.000000    0.000000    0.000000    -11.344219    -13.403162    -19.810125    4.404078    13.643759    -18.867542    6.192544    10.791554    -9.537428    0.000000    0.000000    0.000000    
-9.191738    157.685532    -93.743362    -2.150325    -5.468380    45.915787    -0.827895    -3.560952    -1.191128    -3.668751    4.465473    -0.247008    -0.314596    -2.140886    -18.224281    13.859154    1.530837    -17.201178    5.778862    5.714198    -19.606619    -32.769699    19.380857    -49.632771    -4.345150    -20.006731    -113.987015    1.434454    -26.204294    -3.400693    -9.100080    0.681975    -3.525959    24.606743    4.990695    57.409893    -2.982454    -37.714779    2.626045    21.941479    -35.059387    16.545971    21.659174    1.778547    -2.803613    -10.136290    23.829990    -19.095762    -2.615499    -24.372316    42.050823    0.000000    0.000000    0.000000    -11.337049    -13.400392    -19.788240    4.402293    13.622730    -18.890999    6.203094    10.798383    -9.529933    0.000000    0.000000    0.000000    
-9.194598    157.689484    -93.748154    -2.157224    -5.470196    45.922394    -0.427647    -3.814966    -1.613894    -4.117746    4.972356    -0.355962    -0.905416    -2.524570    -18.072987    14.432893    1.882322    -16.912022    5.598120    5.385902    -18.748184    -32.278946    19.771492    -49.777920    -4.216193    -20.585722    -114.174438    1.206341    -26.592712    -3.323651    -9.690839    0.352983    -3.132573    24.749186    4.448828    57.752804    -3.420839    -37.588100    2.529337    21.778149    -34.927467    16.639912    21.664246    1.772115    -2.800778    -10.135805    23.825180    -19.090412    -2.615429    -24.365313    42.043922    0.000000    0.000000    0.000000    -11.325795    -13.392661    -19.773048    4.401416    13.590794    -18.906807    6.194183    10.816452    -9.542747    0.000000    0.000000    0.000000    
-9.193722    157.695435    -93.752808    -2.161418    -5.473920    45.932560    -0.812612    -3.541625    -1.213070    -3.716394    4.400949    -0.254610    -0.303875    -2.159071    -18.244066    13.883955    1.593134    -17.228178    5.781075    5.760656    -19.642496    -32.793674    19.397905    -49.699497    -4.351398    -20.013781    -113.993263    1.279339    -26.216167    -3.396701    -9.368451    0.360318    -3.511795    24.127962    3.823247    57.292843    -3.188203    -37.362457    2.927975    21.625771    -34.696484    16.712580    21.664680    1.762323    -2.809101    -10.129199    23.830589    -19.092466    -2.612074    -24.365614    42.054249    0.000000    0.000000    0.000000    -11.319253    -13.381721    -19.764172    4.405370    13.567096    -18.927958    6.183693    10.834512    -9.549625    0.000000    0.000000    0.000000    
-9.200792    157.699280    -93.754669    -2.174954    -5.480639    45.937325    -0.800009    -3.510795    -1.218636    -3.737971    4.324630    -0.258437    -0.289581    -2.143221    -18.254017    13.890016    1.608028    -17.242136    5.768498    5.806364    -19.669836    -32.848221    19.351318    -49.743343    -4.391960    -19.912315    -113.983261    1.321604    -26.175348    -3.369730    -9.510175    0.199242    -3.506989    23.867731    3.267633    57.228973    -3.294420    -37.209305    3.073715    21.751356    -34.457306    17.078907    21.682741    1.741904    -2.822943    -10.135296    23.849033    -19.103111    -2.612034    -24.365747    42.074604    0.000000    0.000000    0.000000    -11.297851    -13.382658    -19.744793    4.397249    13.549045    -18.934420    6.190864    10.851537    -9.560238    0.000000    0.000000    0.000000    
-9.202209    157.701385    -93.755203    -2.179609    -5.489260    45.957775    -0.784631    -3.499639    -1.229740    -3.767742    4.308585    -0.261704    -0.285677    -2.172410    -18.275696    13.904971    1.646188    -17.268291    5.774760    5.817492    -19.679249    -32.867043    19.360178    -49.783184    -4.396261    -19.887941    -113.989861    1.312494    -26.158482    -3.369060    -9.668651    0.003536    -3.530431    23.721069    2.590682    57.161591    -3.207648    -36.872784    3.314906    21.805895    -34.052277    17.360085    21.694342    1.723629    -2.843099    -10.143749    23.867289    -19.093824    -2.611441    -24.369879    42.070244    0.000000    0.000000    0.000000    -11.283338    -13.366633    -19.754045    4.385068    13.528756    -18.943157    6.204851    10.858376    -9.556993    0.000000    0.000000    0.000000    
-9.204158    157.703705    -93.752205    -2.185497    -5.502273    45.978828    -0.762350    -3.483289    -1.234167    -3.804755    4.283302    -0.262895    -0.288530    -2.199750    -18.297804    13.933994    1.695175    -17.293314    5.777214    5.844745    -19.689661    -32.843914    19.410231    -49.846771    -4.385364    -19.921133    -113.995903    1.312721    -26.175529    -3.360928    -9.806853    -0.167244    -3.539048    23.493839    1.958980    57.059895    -3.206416    -36.701931    3.583268    22.097895    -33.765778    17.750467    21.715559    1.710843    -2.870160    -10.155782    23.880268    -19.116013    -2.603110    -24.376776    42.099171    0.000000    0.000000    0.000000    -11.270217    -13.344243    -19.738823    4.397943    13.503630    -18.968706    6.180678    10.865747    -9.568799    0.000000    0.000000    0.000000    
